<?xml version="1.0" encoding="iso-8859-1"?>
<!-- Generator: Adobe Illustrator 19.0.0, SVG Export Plug-In . SVG Version: 6.00 Build 0)  -->
<svg version="1.1" id="Capa_1" xmlns="http://www.w3.org/2000/svg" xmlns:xlink="http://www.w3.org/1999/xlink" x="0px" y="0px"
	 viewBox="0 0 512 512" style="enable-background:new 0 0 512 512;" xml:space="preserve" fill="white">
<g>
	<g>
		<path d="M511.836,260.043l-41.271,0.225l2.578-2.621c50.896-50.947,50.882-133.803-0.046-184.73
			c-50.942-50.943-133.833-50.944-184.776,0l-32.361,32.363l-32.362-32.362c-50.942-50.943-133.833-50.943-184.776,0
			C-12.123,123.86-12.122,206.75,38.788,257.66l9.474,9.532H0v29.995h78.068l178.979,180.103l183.847-186.865L512,290.038
			L511.836,260.043z M256.941,434.63L120.356,297.188h65.163L213.7,229.43l42.881,135.228l62.218-95.498l16.453,21.841l63.337-0.346
			L256.941,434.63z M428.259,260.499l-78.112,0.427l-33.131-43.978l-50.991,78.266L217.5,142.185l-51.993,125.008h-74.96
			L60.03,236.483c-19.012-19.013-29.482-44.291-29.482-71.178c0-26.889,10.47-52.167,29.483-71.179
			c19.013-19.012,44.291-29.482,71.178-29.482c26.888,0,52.166,10.47,71.179,29.482l53.571,53.571l53.571-53.571
			c19.013-19.013,44.291-29.482,71.178-29.482c26.889,0,52.167,10.47,71.179,29.482c19.012,19.012,29.482,44.291,29.482,71.179
			s-10.47,52.166-29.482,71.178L428.259,260.499z"/>
	</g>
</g>
<g>
</g>
<g>
</g>
<g>
</g>
<g>
</g>
<g>
</g>
<g>
</g>
<g>
</g>
<g>
</g>
<g>
</g>
<g>
</g>
<g>
</g>
<g>
</g>
<g>
</g>
<g>
</g>
<g>
</g>
</svg>
