<svg height="419pt" viewBox="0 -1 419.6 419" width="419pt" xmlns="http://www.w3.org/2000/svg"><path d="m209.800781 320c115.898438 0 209.800781 22 209.800781 49.101562 0 27.097657-93.902343 49-209.800781 49-115.902343 0-209.800781-22-209.800781-49s93.898438-49.101562 209.800781-49.101562zm74.800781 49c0-9.699219-33.5-17.5-74.800781-17.5s-74.800781 7.800781-74.800781 17.5c0 9.601562 33.5 17.5 74.800781 17.5s74.800781-7.800781 74.800781-17.5zm0 0" fill="#00efd1"/><path d="m289.601562 34.898438c21.226563 22.492187 33.003907 52.277343 32.898438 83.203124.15625 30.84375-11.632812 60.554688-32.898438 82.898438l-79.800781 83.398438-79.800781-83.296876c-43.898438-46.101562-43.898438-120.5 0-166.203124 20.707031-22.023438 49.570312-34.539063 79.800781-34.597657 29 0 57.800781 11.597657 79.800781 34.597657zm-32.402343 67.402343c0-26.179687-21.222657-47.402343-47.398438-47.402343-26.179687 0-47.402343 21.222656-47.402343 47.402343 0 26.175781 21.222656 47.398438 47.402343 47.398438 12.574219.007812 24.632813-4.984375 33.523438-13.875s13.882812-20.949219 13.875-33.523438zm0 0" fill="#00acea"/></svg>